PathFileType	4	(X/Y/Z)	 s04c0303.trc
DataRate	CameraRate	NumFrames	NumMarkers	Units	OrigDataRate	OrigDataStartFrame	OrigNumFrames
200	200	4	50	mm	200	1751	2000
Frame#	Time	racr			lacr			c7			jug			rlel			rdr			llel			ldr			s2			lic			ric			lasi			rasi			rpsi			lpsi			rgt			lgt			rth1			rth2			rth3			rth4			rlfc			rmfc			rsh1			rsh2			rsh3			rsh4			rlmal			rmmal			rcal			rtoe			rmt5			lth1			lth2			lth4			lth3			llfc			lmfc			lsh1			lsh2			lsh3			lsh4			llmal			lmmal			lcal			ltoe			lmt5			SBIKE			LBIKE			RBIKE			
		X1	Y1	Z1	X2	Y2	Z2	X3	Y3	Z3	X4	Y4	Z4	X5	Y5	Z5	X6	Y6	Z6	X7	Y7	Z7	X8	Y8	Z8	X9	Y9	Z9	X10	Y10	Z10	X11	Y11	Z11	X12	Y12	Z12	X13	Y13	Z13	X14	Y14	Z14	X15	Y15	Z15	X16	Y16	Z16	X17	Y17	Z17	X18	Y18	Z18	X19	Y19	Z19	X20	Y20	Z20	X21	Y21	Z21	X22	Y22	Z22	X23	Y23	Z23	X24	Y24	Z24	X25	Y25	Z25	X26	Y26	Z26	X27	Y27	Z27	X28	Y28	Z28	X29	Y29	Z29	X30	Y30	Z30	X31	Y31	Z31	X32	Y32	Z32	X33	Y33	Z33	X34	Y34	Z34	X35	Y35	Z35	X36	Y36	Z36	X37	Y37	Z37	X38	Y38	Z38	X39	Y39	Z39	X40	Y40	Z40	X41	Y41	Z41	X42	Y42	Z42	X43	Y43	Z43	X44	Y44	Z44	X45	Y45	Z45	X46	Y46	Z46	X47	Y47	Z47	X48	Y48	Z48	X49	Y49	Z49	X50	Y50	Z50	
1751	8.7550	449.303896	1434.723948	-91.963595	458.220585	1427.030961	-396.813414	419.668387	1502.102235	-250.407949	444.231425	1357.537240	-247.248724	540.851408	1147.865178	-0.905873	697.208844	906.372487	-85.057094	532.783223	1160.968673	-506.053316	704.817517	907.227938	-443.026019	-73.493071	1161.309286	-288.535792	96.855518	1183.144403	-423.948622	60.882977	1190.864730	-107.680036	136.796109	1135.783146	-376.615221	109.436213	1144.501611	-149.369475	-53.012726	1208.450254	-242.368728	-44.286874	1213.651177	-320.179068	15.354582	1130.257790	-86.188559	57.523037	1079.296652	-456.262985	151.774181	1064.209899	-69.681576	239.897533	1056.596846	-63.601404	310.765506	1009.462634	-54.531921	252.358142	1086.798328	-82.873498	432.375792	927.340256	-68.906333	428.363017	914.715117	-185.600458	351.614157	839.410504	-58.814243	305.224877	764.344374	-83.303172	227.115315	729.025627	-96.559241	328.726218	748.210973	-108.663151	128.109339	618.657422	-123.690486	154.027986	624.029107	-207.335928	50.965033	615.517452	-168.512256	325.035011	492.557810	-149.616295	252.802568	495.605366	-96.459336	96.858070	990.679448	-477.601407	159.629594	930.506108	-480.271188	189.588504	948.345424	-468.164639	183.953388	844.611753	-482.250963	251.757560	699.032271	-457.772947	286.418317	675.860200	-347.922258	234.658679	573.787238	-473.905796	244.248382	488.885528	-455.981166	208.665694	407.743885	-450.203890	275.734068	487.442449	-432.072032	184.001841	262.097741	-439.644062	184.213407	271.087174	-351.502651	108.344247	259.837392	-394.567042	394.917026	161.055997	-406.092097	315.069018	146.562510	-465.736612	-177.366332	932.456155	-279.230330	-3.392393	85.671057	-484.584233	-15.132742	80.437140	-84.105692	
1752	8.7600	449.266137	1434.789349	-91.574459	458.366232	1427.150618	-396.408515	419.601485	1502.099891	-249.679609	444.305027	1357.731162	-246.892977	540.730101	1147.850193	-0.877440	697.150305	906.379321	-85.097218	532.790369	1161.108324	-505.721525	704.800182	907.252149	-443.054687	-73.266166	1161.383643	-288.295768	97.131012	1183.293347	-423.879192	61.085257	1190.792862	-107.421235	137.062401	1135.911586	-376.526365	109.460034	1144.978760	-149.548917	-52.806567	1208.562881	-242.141603	-44.080041	1213.694872	-319.979748	15.627305	1130.958189	-85.799810	57.590662	1079.430345	-456.016633	152.310298	1066.319637	-69.893375	240.531195	1059.768985	-64.016019	311.947715	1013.500215	-54.818246	252.555210	1090.095484	-83.446982	434.732177	932.651457	-69.617321	430.411969	919.713064	-186.070568	355.169401	843.602436	-59.062905	309.802612	767.750158	-83.471853	232.530022	731.110407	-96.993431	333.539890	751.942566	-108.666337	134.907130	619.369766	-123.450429	161.136674	625.031821	-206.639122	57.726284	615.428440	-168.276028	333.052386	495.012983	-149.481447	260.851092	497.483357	-96.392829	96.952024	990.750861	-477.236998	159.457077	930.304383	-479.746002	189.462381	948.013040	-467.570764	183.402781	844.265333	-481.588246	250.139999	698.205821	-457.269100	284.217975	674.634014	-347.353264	231.728782	573.250254	-473.795088	240.242728	488.073079	-455.732387	203.724687	407.346575	-450.074303	271.641075	486.280099	-431.802155	177.453543	261.937830	-439.607463	177.754644	270.763031	-351.510015	101.840086	260.504035	-394.548158	387.195088	158.315786	-406.219602	307.139170	144.853930	-465.875938	-177.338427	932.492271	-279.271188	-3.379398	85.648940	-484.589589	-15.121364	80.457608	-84.099383	
1753	8.7650	449.214759	1434.839015	-91.190670	458.529407	1427.251334	-396.021694	419.700305	1502.202244	-249.309323	444.418802	1357.912853	-246.551145	540.647620	1147.844613	-0.876667	697.096193	906.383422	-85.073343	532.792257	1161.187497	-505.380549	704.766224	907.277643	-443.049376	-73.067525	1161.468417	-288.020827	97.302150	1183.507631	-423.735384	61.344765	1190.923102	-107.297781	137.281338	1136.114576	-376.436002	109.488334	1145.584260	-149.634151	-52.626228	1208.666828	-241.859312	-43.710976	1213.904147	-321.197162	15.880537	1131.638182	-85.436911	57.637264	1079.649000	-455.791631	152.834927	1068.375733	-70.089024	241.114269	1062.780340	-64.450991	312.979720	1017.319852	-55.216786	252.732093	1093.071864	-84.137479	436.802662	937.730264	-69.972678	432.713245	924.709100	-186.335123	358.538628	847.532557	-59.386578	314.258813	770.976454	-83.593512	237.580845	733.095586	-97.075645	338.244007	755.490491	-108.697103	141.850544	619.683105	-123.267118	167.529425	625.645041	-206.813307	64.699144	614.939964	-168.081577	341.245419	497.009579	-149.425787	269.033129	498.990902	-96.242782	97.090243	990.886521	-476.880848	159.373699	930.175764	-479.175114	189.408703	947.787756	-466.970055	182.956188	844.062965	-480.964693	248.742386	697.616383	-456.771243	282.452970	673.455732	-346.881782	228.909773	572.777455	-473.466055	236.368555	487.565810	-455.447449	198.903860	407.236342	-449.895579	267.738354	485.344757	-431.525372	170.916132	262.099811	-439.560513	171.281349	270.820313	-351.526267	95.236014	261.647218	-394.453740	379.332357	155.934785	-406.400103	299.089858	143.559219	-466.076674	-177.288332	932.511295	-279.281964	-3.384933	85.658830	-484.599837	-15.130543	80.441483	-84.092602	
1754	8.7700	449.128772	1434.881140	-90.821034	458.717243	1427.374834	-395.653846	419.777594	1502.339517	-248.964433	444.525378	1358.072590	-246.180925	540.582385	1147.854257	-0.900969	697.066569	906.380415	-85.013668	532.773195	1161.248911	-505.029692	704.953028	907.544859	-443.310073	-72.898159	1161.577636	-287.650000	97.459286	1183.800886	-423.678098	61.623518	1191.084160	-107.115945	137.490687	1136.303870	-376.357366	109.469186	1146.080505	-149.798760	-52.055400	1208.563440	-241.671296	-43.592322	1213.981019	-320.956478	16.106122	1132.191408	-85.084373	57.682458	1079.906039	-455.578684	153.195165	1070.300076	-70.285413	241.546445	1065.675495	-64.835641	313.760843	1020.979820	-55.763154	252.813033	1095.995350	-84.653257	438.697231	942.604026	-70.440888	434.723567	929.451403	-186.812111	361.801431	851.173102	-59.731040	318.748833	773.939269	-83.754226	242.717265	734.799558	-97.070696	342.983767	758.692475	-108.677494	148.839822	619.625257	-123.074056	174.311551	625.780680	-206.715726	72.245924	614.013499	-168.051215	349.493602	498.604742	-149.345511	277.264151	500.025831	-96.135164	97.261244	991.072510	-476.532692	159.347885	930.136722	-478.535156	189.416009	947.647882	-466.323729	182.654151	843.960450	-480.369367	247.574805	697.236474	-456.333458	280.928088	672.562487	-346.490811	226.329867	572.557312	-473.203682	232.645617	487.281130	-455.215825	194.171562	407.444327	-449.795164	263.954118	484.667306	-431.202802	164.283754	262.724554	-439.558158	164.810310	271.262618	-351.550994	88.742462	263.469344	-394.967706	371.375317	153.979582	-406.608214	290.968900	142.621229	-466.207655	-177.162114	932.526830	-279.222441	-3.392971	85.649834	-484.586916	-15.125162	80.455662	-84.089372	
